<?xml version="1.0" encoding="UTF-8" standalone="no"?>
<!DOCTYPE svg PUBLIC "-//W3C//DTD SVG 1.1//EN"
 "http://www.w3.org/Graphics/SVG/1.1/DTD/svg11.dtd">
<!-- Generated by graphviz version 2.46.1 (20210213.1702)
 -->
<!-- Title: Title: NIV
Description: Network Infrastructure Visualization
Date: 16.03.2021
Version: 1.0
 Pages: 1 -->
<svg width="542pt" height="1886pt"
 viewBox="0.00 0.00 542.00 1886.00" xmlns="http://www.w3.org/2000/svg" xmlns:xlink="http://www.w3.org/1999/xlink">
<g id="graph0" class="graph" transform="scale(1 1) rotate(0) translate(36 1850)">
<title>Title: NIV
Description: Network Infrastructure Visualization
Date: 16.03.2021
Version: 1.0
</title>
<polygon fill="lightblue" stroke="transparent" points="-36,36 -36,-1850 506,-1850 506,36 -36,36"/>
<text text-anchor="middle" x="235" y="-60" font-family="Helvetica,sans-Serif" font-weight="bold" font-size="15.00" fill="#2d3436">Title: NIV</text>
<text text-anchor="middle" x="235" y="-43" font-family="Helvetica,sans-Serif" font-weight="bold" font-size="15.00" fill="#2d3436">Description: Network Infrastructure Visualization</text>
<text text-anchor="middle" x="235" y="-26" font-family="Helvetica,sans-Serif" font-weight="bold" font-size="15.00" fill="#2d3436">Date: 16.03.2021</text>
<text text-anchor="middle" x="235" y="-9" font-family="Helvetica,sans-Serif" font-weight="bold" font-size="15.00" fill="#2d3436">Version: 1.0</text>
<g id="clust1" class="cluster">
<title>cluster_Servers</title>
<g id="a_clust1"><a xlink:href="Diagram-subdiagrams/./Diagram_group1.svg" xlink:title="That&#39;s a tooltip">
<path fill="#e5f5fd" stroke="#aeb6be" d="M20,-812C20,-812 450,-812 450,-812 456,-812 462,-818 462,-824 462,-824 462,-1293 462,-1293 462,-1299 456,-1305 450,-1305 450,-1305 20,-1305 20,-1305 14,-1305 8,-1299 8,-1293 8,-1293 8,-824 8,-824 8,-818 14,-812 20,-812"/>
<text text-anchor="middle" x="38.5" y="-1291.4" font-family="Helvetica,sans-Serif" font-weight="bold" font-size="12.00" fill="#2d3436">Servers</text>
</a>
</g>
</g>
<g id="clust2" class="cluster">
<title>cluster_Desktops</title>
<g id="a_clust2"><a xlink:href="Diagram-subdiagrams/./Diagram_group2.svg" xlink:title="Desktops">
<path fill="#e5f5fd" stroke="#aeb6be" d="M324,-1313C324,-1313 449,-1313 449,-1313 455,-1313 461,-1319 461,-1325 461,-1325 461,-1794 461,-1794 461,-1800 455,-1806 449,-1806 449,-1806 324,-1806 324,-1806 318,-1806 312,-1800 312,-1794 312,-1794 312,-1325 312,-1325 312,-1319 318,-1313 324,-1313"/>
<text text-anchor="middle" x="347.5" y="-1792.4" font-family="Helvetica,sans-Serif" font-weight="bold" font-size="12.00" fill="#2d3436">Desktops</text>
</a>
</g>
</g>
<g id="clust3" class="cluster">
<title>cluster_Group</title>
<g id="a_clust3"><a xlink:href="Diagram-subdiagrams/./Diagram_group3.svg" xlink:title="Group">
<path fill="#e5f5fd" stroke="#aeb6be" d="M38,-308C38,-308 152,-308 152,-308 158,-308 164,-314 164,-320 164,-320 164,-789 164,-789 164,-795 158,-801 152,-801 152,-801 38,-801 38,-801 32,-801 26,-795 26,-789 26,-789 26,-320 26,-320 26,-314 32,-308 38,-308"/>
<text text-anchor="middle" x="52.5" y="-787.4" font-family="Helvetica,sans-Serif" font-weight="bold" font-size="12.00" fill="#2d3436">Group</text>
</a>
</g>
</g>
<!-- 56ce053582a74d889cf64f6ef5b5b0d4 -->
<g id="node1" class="node">
<title>56ce053582a74d889cf64f6ef5b5b0d4</title>
<g id="a_node1"><a xlink:title="Name: My Desktop 2&#10;">
<image xlink:href="C:\Users\musa-\Desktop\TOP\niv\src\../resources/icons/osa/svg\osa-desktop-imac.svg" width="98px" height="98px" preserveAspectRatio="xMinYMin meet" x="46" y="-256"/>
<text text-anchor="middle" x="95" y="-93.6" font-family="Sans-Serif" font-size="13.00" fill="#2d3436">My Desktop 2</text>
<text text-anchor="middle" x="95" y="-79.6" font-family="Sans-Serif" font-size="13.00" fill="#2d3436"> </text>
</a>
</g>
</g>
<!-- a90f83db7aad4646a1ad70a49f50595d -->
<g id="node2" class="node">
<title>a90f83db7aad4646a1ad70a49f50595d</title>
<g id="a_node2"><a xlink:href="https://theuselessweb.com/" xlink:title="Name: Random text&#10;Tooltip: Test tooltip&#10;">
<image xlink:href="C:\Users\musa-\Desktop\TOP\niv\src\../resources/icons/osa/svg\osa-cloud.svg" width="98px" height="98px" preserveAspectRatio="xMinYMin meet" x="46" y="-1012"/>
<text text-anchor="middle" x="95" y="-849.6" font-family="Sans-Serif" font-size="13.00" fill="#2d3436">Random text</text>
<text text-anchor="middle" x="95" y="-835.6" font-family="Sans-Serif" font-size="13.00" fill="#2d3436"> 192.168.0.1</text>
</a>
</g>
</g>
<!-- ffb122e631074635950e40baadba1141 -->
<g id="node3" class="node">
<title>ffb122e631074635950e40baadba1141</title>
<g id="a_node3"><a xlink:title="Name: MySQL Database&#10;MAC&#45;Address: 00:0a:95:9d:68:16&#10;Modelnr: 133742069&#10;Manufacturer: HP&#10;Storage: Seagate, 50 TB, no raid&#10;Tooltip: I am an additional tooltip&#10;">
<image xlink:href="C:\Users\musa-\Desktop\TOP\niv\src\../resources/icons/osa/svg\osa-database.svg" width="111px" height="111px" preserveAspectRatio="xMinYMin meet" x="331" y="-1012"/>
<text text-anchor="middle" x="386.5" y="-849.6" font-family="Sans-Serif" font-size="13.00" fill="#2d3436">MySQL Database</text>
<text text-anchor="middle" x="386.5" y="-835.6" font-family="Sans-Serif" font-size="13.00" fill="#2d3436"> 192.164.41.33</text>
</a>
</g>
</g>
<!-- a90f83db7aad4646a1ad70a49f50595d&#45;&gt;ffb122e631074635950e40baadba1141 -->
<g id="edge1" class="edge">
<title>a90f83db7aad4646a1ad70a49f50595d&#45;&gt;ffb122e631074635950e40baadba1141</title>
<g id="a_edge1"><a xlink:title="This is some random tooltip">
<path fill="none" stroke="red" stroke-width="2" d="M144.13,-922C195.58,-922 277,-922 330.83,-922"/>
</a>
</g>
<g id="a_edge1&#45;label"><a xlink:title="Test">
<text text-anchor="middle" x="246.5" y="-925.6" font-family="Sans-Serif" font-size="13.00" fill="#2d3436">Test</text>
</a>
</g>
</g>
<!-- 14aefa4dec5b4345809f3d7fff2bb068 -->
<g id="node4" class="node">
<title>14aefa4dec5b4345809f3d7fff2bb068</title>
<g id="a_node4"><a xlink:title="Name: Local Device Scanner&#10;Modelnr: 2321331&#10;">
<image xlink:href="C:\Users\musa-\Desktop\TOP\niv\src\../resources/icons/osa/svg\osa-device-scanner.svg" width="134px" height="134px" preserveAspectRatio="xMinYMin meet" x="28" y="-1264"/>
<text text-anchor="middle" x="95" y="-1101.6" font-family="Sans-Serif" font-size="13.00" fill="#2d3436">Local Device Scanner</text>
<text text-anchor="middle" x="95" y="-1087.6" font-family="Sans-Serif" font-size="13.00" fill="#2d3436"> </text>
</a>
</g>
</g>
<!-- ea8415cceac94e70b8dfa8557a2bc925 -->
<g id="node6" class="node">
<title>ea8415cceac94e70b8dfa8557a2bc925</title>
<g id="a_node6"><a xlink:title="Name: Central Terminal&#10;MAC&#45;Address: 22:0a:95:9d:12:16&#10;">
<image xlink:href="C:\Users\musa-\Desktop\TOP\niv\src\../resources/icons/osa/svg\osa-server-terminal.svg" width="109px" height="109px" preserveAspectRatio="xMinYMin meet" x="332" y="-1513"/>
<text text-anchor="middle" x="386.5" y="-1350.6" font-family="Sans-Serif" font-size="13.00" fill="#2d3436">Central Terminal</text>
<text text-anchor="middle" x="386.5" y="-1336.6" font-family="Sans-Serif" font-size="13.00" fill="#2d3436"> </text>
</a>
</g>
</g>
<!-- 14aefa4dec5b4345809f3d7fff2bb068&#45;&gt;ea8415cceac94e70b8dfa8557a2bc925 -->
<g id="edge3" class="edge">
<title>14aefa4dec5b4345809f3d7fff2bb068&#45;&gt;ea8415cceac94e70b8dfa8557a2bc925</title>
<g id="a_edge3"><a xlink:title="Central Terminal &lt;&#45;&#45;&#45;&gt; Local Device Scanner">
<path fill="none" stroke="purple" d="M162.05,-1230.81C213.45,-1275.02 283.87,-1335.59 331.83,-1376.84"/>
</a>
</g>
</g>
<!-- 33d2026372d545a9859f1062882ed03a -->
<g id="node5" class="node">
<title>33d2026372d545a9859f1062882ed03a</title>
<g id="a_node5"><a xlink:title="Name: My WebServer&#10;Manufacturer: Acer&#10;">
<image xlink:href="C:\Users\musa-\Desktop\TOP\niv\src\../resources/icons/osa/svg\osa-server-web.svg" width="98px" height="98px" preserveAspectRatio="xMinYMin meet" x="337.5" y="-1765"/>
<text text-anchor="middle" x="386.5" y="-1602.6" font-family="Sans-Serif" font-size="13.00" fill="#2d3436">My WebServer</text>
<text text-anchor="middle" x="386.5" y="-1588.6" font-family="Sans-Serif" font-size="13.00" fill="#2d3436"> </text>
</a>
</g>
</g>
<!-- 311ebfb226f843a6be8cd19bd9cc2619 -->
<g id="node7" class="node">
<title>311ebfb226f843a6be8cd19bd9cc2619</title>
<g id="a_node7"><a xlink:title="Name: My WebServer&#10;Manufacturer: Acer&#10;">
<image xlink:href="C:\Users\musa-\Desktop\TOP\niv\src\../resources/icons/osa/svg\osa-server-web.svg" width="98px" height="98px" preserveAspectRatio="xMinYMin meet" x="46" y="-760"/>
<text text-anchor="middle" x="95" y="-597.6" font-family="Sans-Serif" font-size="13.00" fill="#2d3436">My WebServer</text>
<text text-anchor="middle" x="95" y="-583.6" font-family="Sans-Serif" font-size="13.00" fill="#2d3436"> </text>
</a>
</g>
</g>
<!-- 24819bf7420d41d196a881aac79818a8 -->
<g id="node8" class="node">
<title>24819bf7420d41d196a881aac79818a8</title>
<g id="a_node8"><a xlink:title="Name: node&#10;Manufacturer: Asus&#10;">
<image xlink:href="C:\Users\musa-\Desktop\TOP\niv\src\../resources/icons/osa/svg\osa-desktop-imac.svg" width="98px" height="98px" preserveAspectRatio="xMinYMin meet" x="46" y="-508"/>
<text text-anchor="middle" x="95" y="-345.6" font-family="Sans-Serif" font-size="13.00" fill="#2d3436">node</text>
<text text-anchor="middle" x="95" y="-331.6" font-family="Sans-Serif" font-size="13.00" fill="#2d3436"> </text>
</a>
</g>
</g>
<!-- 24819bf7420d41d196a881aac79818a8&#45;&gt;ffb122e631074635950e40baadba1141 -->
<g id="edge2" class="edge">
<title>24819bf7420d41d196a881aac79818a8&#45;&gt;ffb122e631074635950e40baadba1141</title>
<g id="a_edge2"><a xlink:title="MySQL Database (Port: 255) &lt;&#45;&#45;&#45;&gt; node (Port: 1337)">
<path fill="none" stroke="blue" d="M144.13,-501.79C196.46,-592.9 279.81,-738 333.59,-831.62"/>
</a>
</g>
</g>
</g>
</svg>
